[
  {
    "channel": 9,
    "deltaTime": 1377,
    "duration": 25,
    "noteNumber": 42,
    "realTime": 1912,
    "sigIdx": 1,
    "signature": "0001.04.ned",
    "sortKey": 132,
    "track": 10,
    "type": "noteOn",
    "velocity": 55
  },
  {
    "channel": 9,
    "deltaTime": 455,
    "duration": 25,
    "noteNumber": 42,
    "realTime": 2392,
    "sigIdx": 1,
    "signature": "0002.01.ned",
    "sortKey": 135,
    "track": 10,
    "type": "noteOn",
    "velocity": 40
  },
  {
    "channel": 9,
    "deltaTime": 455,
    "duration": 25,
    "noteNumber": 42,
    "realTime": 2872,
    "sigIdx": 1,
    "signature": "0002.02.ned",
    "sortKey": 138,
    "track": 10,
    "type": "noteOn",
    "velocity": 42
  },
  {
    "channel": 9,
    "deltaTime": 405,
    "duration": 25,
    "noteNumber": 40,
    "realTime": 3302,
    "sigIdx": 1,
    "signature": "0002.03.ned",
    "sortKey": 141,
    "track": 10,
    "type": "noteOn",
    "velocity": 127
  },
  {
    "channel": 9,
    "deltaTime": 28,
    "duration": 25,
    "noteNumber": 40,
    "realTime": 3355,
    "sigIdx": 1,
    "signature": "0002.03.ned",
    "sortKey": 143,
    "track": 10,
    "type": "noteOn",
    "velocity": 127
  },
  {
    "channel": 6,
    "deltaTime": 3217,
    "duration": 15355,
    "noteNumber": 57,
    "realTime": 3792,
    "sigIdx": 1,
    "signature": "0002.04.ned",
    "sortKey": 146,
    "track": 7,
    "type": "noteOn",
    "velocity": 85
  },
  {
    "channel": 6,
    "deltaTime": 0,
    "duration": 15355,
    "noteNumber": 62,
    "realTime": 3792,
    "sigIdx": 1,
    "signature": "0002.04.ned",
    "sortKey": 147,
    "track": 7,
    "type": "noteOn",
    "velocity": 85
  },
  {
    "channel": 6,
    "deltaTime": 0,
    "duration": 15355,
    "noteNumber": 65,
    "realTime": 3792,
    "sigIdx": 1,
    "signature": "0002.04.ned",
    "sortKey": 148,
    "track": 7,
    "type": "noteOn",
    "velocity": 85
  },
  {
    "channel": 8,
    "deltaTime": 2687,
    "duration": 358,
    "noteNumber": 57,
    "realTime": 3822,
    "sigIdx": 1,
    "signature": "0002.04.ned",
    "sortKey": 149,
    "track": 9,
    "type": "noteOn",
    "velocity": 65
  },
  {
    "channel": 8,
    "deltaTime": 13,
    "duration": 955,
    "noteNumber": 50,
    "realTime": 3835,
    "sigIdx": 1,
    "signature": "0002.04.ned",
    "sortKey": 150,
    "track": 9,
    "type": "noteOn",
    "velocity": 102
  },
  {
    "channel": 9,
    "deltaTime": 455,
    "duration": 25,
    "noteNumber": 35,
    "realTime": 3835,
    "sigIdx": 1,
    "signature": "0002.04.ned",
    "sortKey": 151,
    "track": 10,
    "type": "noteOn",
    "velocity": 107
  },
  {
    "channel": 9,
    "deltaTime": 0,
    "duration": 25,
    "noteNumber": 42,
    "realTime": 3835,
    "sigIdx": 1,
    "signature": "0002.04.ned",
    "sortKey": 152,
    "track": 10,
    "type": "noteOn",
    "velocity": 74
  },
  {
    "channel": 9,
    "deltaTime": 0,
    "duration": 25,
    "noteNumber": 51,
    "realTime": 3835,
    "sigIdx": 1,
    "signature": "0002.04.ned",
    "sortKey": 153,
    "track": 10,
    "type": "noteOn",
    "velocity": 59
  },
  {
    "channel": 9,
    "deltaTime": 0,
    "duration": 25,
    "noteNumber": 53,
    "realTime": 3835,
    "sigIdx": 1,
    "signature": "0002.04.ned",
    "sortKey": 154,
    "track": 10,
    "type": "noteOn",
    "velocity": 67
  },
  {
    "channel": 1,
    "deltaTime": 2808,
    "duration": 540,
    "noteNumber": 38,
    "realTime": 3840,
    "sigIdx": 1,
    "signature": "0003.01.ned",
    "sortKey": 156,
    "track": 2,
    "type": "noteOn",
    "velocity": 109
  },
  {
    "channel": 8,
    "deltaTime": 227,
    "duration": 478,
    "noteNumber": 69,
    "realTime": 4062,
    "sigIdx": 1,
    "signature": "0003.01.ned",
    "sortKey": 161,
    "track": 9,
    "type": "noteOn",
    "velocity": 96
  },
  {
    "channel": 9,
    "deltaTime": 215,
    "duration": 25,
    "noteNumber": 42,
    "realTime": 4075,
    "sigIdx": 1,
    "signature": "0003.01.ned",
    "sortKey": 162,
    "track": 10,
    "type": "noteOn",
    "velocity": 54
  },
  {
    "channel": 8,
    "deltaTime": 83,
    "duration": 405,
    "noteNumber": 65,
    "realTime": 4145,
    "sigIdx": 1,
    "signature": "0003.01.ned",
    "sortKey": 164,
    "track": 9,
    "type": "noteOn",
    "velocity": 96
  },
  {
    "channel": 8,
    "deltaTime": 57,
    "duration": 325,
    "noteNumber": 62,
    "realTime": 4237,
    "sigIdx": 1,
    "signature": "0003.01.ned",
    "sortKey": 166,
    "track": 9,
    "type": "noteOn",
    "velocity": 96
  },
  {
    "channel": 9,
    "deltaTime": 215,
    "duration": 25,
    "noteNumber": 42,
    "realTime": 4315,
    "sigIdx": 1,
    "signature": "0003.01.ned",
    "sortKey": 167,
    "track": 10,
    "type": "noteOn",
    "velocity": 65
  },
  {
    "channel": 9,
    "deltaTime": 0,
    "duration": 25,
    "noteNumber": 40,
    "realTime": 4315,
    "sigIdx": 1,
    "signature": "0003.01.ned",
    "sortKey": 168,
    "track": 10,
    "type": "noteOn",
    "velocity": 127
  },
  {
    "channel": 8,
    "deltaTime": 2,
    "duration": 238,
    "noteNumber": 69,
    "realTime": 4542,
    "sigIdx": 1,
    "signature": "0003.02.ned",
    "sortKey": 174,
    "track": 9,
    "type": "noteOn",
    "velocity": 102
  },
  {
    "channel": 8,
    "deltaTime": 5,
    "duration": 235,
    "noteNumber": 65,
    "realTime": 4555,
    "sigIdx": 1,
    "signature": "0003.02.ned",
    "sortKey": 176,
    "track": 9,
    "type": "noteOn",
    "velocity": 102
  },
  {
    "channel": 9,
    "deltaTime": 215,
    "duration": 25,
    "noteNumber": 35,
    "realTime": 4555,
    "sigIdx": 1,
    "signature": "0003.02.ned",
    "sortKey": 177,
    "track": 10,
    "type": "noteOn",
    "velocity": 75
  },
  {
    "channel": 9,
    "deltaTime": 0,
    "duration": 25,
    "noteNumber": 42,
    "realTime": 4555,
    "sigIdx": 1,
    "signature": "0003.02.ned",
    "sortKey": 178,
    "track": 10,
    "type": "noteOn",
    "velocity": 49
  },
  {
    "channel": 1,
    "deltaTime": 180,
    "duration": 90,
    "noteNumber": 38,
    "realTime": 4560,
    "sigIdx": 1,
    "signature": "0003.02.ned",
    "sortKey": 179,
    "track": 2,
    "type": "noteOn",
    "velocity": 105
  },
  {
    "channel": 8,
    "deltaTime": 3,
    "duration": 235,
    "noteNumber": 62,
    "realTime": 4565,
    "sigIdx": 1,
    "signature": "0003.02.ned",
    "sortKey": 181,
    "track": 9,
    "type": "noteOn",
    "velocity": 102
  },
  {
    "channel": 8,
    "deltaTime": 2,
    "duration": 238,
    "noteNumber": 57,
    "realTime": 4782,
    "sigIdx": 1,
    "signature": "0003.02.ned",
    "sortKey": 186,
    "track": 9,
    "type": "noteOn",
    "velocity": 65
  },
  {
    "channel": 8,
    "deltaTime": 5,
    "duration": 955,
    "noteNumber": 50,
    "realTime": 4795,
    "sigIdx": 1,
    "signature": "0003.02.ned",
    "sortKey": 189,
    "track": 9,
    "type": "noteOn",
    "velocity": 102
  },
  {
    "channel": 9,
    "deltaTime": 215,
    "duration": 25,
    "noteNumber": 35,
    "realTime": 4795,
    "sigIdx": 1,
    "signature": "0003.02.ned",
    "sortKey": 190,
    "track": 10,
    "type": "noteOn",
    "velocity": 107
  },
  {
    "channel": 9,
    "deltaTime": 0,
    "duration": 25,
    "noteNumber": 42,
    "realTime": 4795,
    "sigIdx": 1,
    "signature": "0003.02.ned",
    "sortKey": 191,
    "track": 10,
    "type": "noteOn",
    "velocity": 72
  },
  {
    "channel": 1,
    "deltaTime": 150,
    "duration": 570,
    "noteNumber": 38,
    "realTime": 4800,
    "sigIdx": 1,
    "signature": "0003.03.ned",
    "sortKey": 193,
    "track": 2,
    "type": "noteOn",
    "velocity": 109
  },
  {
    "channel": 8,
    "deltaTime": 2,
    "duration": 478,
    "noteNumber": 69,
    "realTime": 5022,
    "sigIdx": 1,
    "signature": "0003.03.ned",
    "sortKey": 198,
    "track": 9,
    "type": "noteOn",
    "velocity": 102
  },
  {
    "channel": 8,
    "deltaTime": 13,
    "duration": 475,
    "noteNumber": 65,
    "realTime": 5035,
    "sigIdx": 1,
    "signature": "0003.03.ned",
    "sortKey": 199,
    "track": 9,
    "type": "noteOn",
    "velocity": 102
  },
  {
    "channel": 9,
    "deltaTime": 215,
    "duration": 25,
    "noteNumber": 42,
    "realTime": 5035,
    "sigIdx": 1,
    "signature": "0003.03.ned",
    "sortKey": 200,
    "track": 10,
    "type": "noteOn",
    "velocity": 47
  },
  {
    "channel": 8,
    "deltaTime": 10,
    "duration": 475,
    "noteNumber": 62,
    "realTime": 5045,
    "sigIdx": 1,
    "signature": "0003.03.ned",
    "sortKey": 201,
    "track": 9,
    "type": "noteOn",
    "velocity": 102
  },
  {
    "channel": 9,
    "deltaTime": 215,
    "duration": 25,
    "noteNumber": 42,
    "realTime": 5275,
    "sigIdx": 1,
    "signature": "0003.03.ned",
    "sortKey": 203,
    "track": 10,
    "type": "noteOn",
    "velocity": 67
  },
  {
    "channel": 9,
    "deltaTime": 0,
    "duration": 25,
    "noteNumber": 40,
    "realTime": 5275,
    "sigIdx": 1,
    "signature": "0003.03.ned",
    "sortKey": 204,
    "track": 10,
    "type": "noteOn",
    "velocity": 127
  },
  {
    "channel": 8,
    "deltaTime": 2,
    "duration": 173,
    "noteNumber": 69,
    "realTime": 5502,
    "sigIdx": 1,
    "signature": "0003.04.ned",
    "sortKey": 210,
    "track": 9,
    "type": "noteOn",
    "velocity": 105
  },
  {
    "channel": 1,
    "deltaTime": 145,
    "duration": 90,
    "noteNumber": 38,
    "realTime": 5515,
    "sigIdx": 1,
    "signature": "0003.04.ned",
    "sortKey": 212,
    "track": 2,
    "type": "noteOn",
    "velocity": 105
  },
  {
    "channel": 8,
    "deltaTime": 5,
    "duration": 172,
    "noteNumber": 65,
    "realTime": 5515,
    "sigIdx": 1,
    "signature": "0003.04.ned",
    "sortKey": 213,
    "track": 9,
    "type": "noteOn",
    "velocity": 105
  },
  {
    "channel": 9,
    "deltaTime": 215,
    "duration": 25,
    "noteNumber": 35,
    "realTime": 5515,
    "sigIdx": 1,
    "signature": "0003.04.ned",
    "sortKey": 214,
    "track": 10,
    "type": "noteOn",
    "velocity": 77
  },
  {
    "channel": 9,
    "deltaTime": 0,
    "duration": 25,
    "noteNumber": 42,
    "realTime": 5515,
    "sigIdx": 1,
    "signature": "0003.04.ned",
    "sortKey": 215,
    "track": 10,
    "type": "noteOn",
    "velocity": 44
  },
  {
    "channel": 8,
    "deltaTime": 5,
    "duration": 172,
    "noteNumber": 62,
    "realTime": 5525,
    "sigIdx": 1,
    "signature": "0003.04.ned",
    "sortKey": 217,
    "track": 9,
    "type": "noteOn",
    "velocity": 105
  },
  {
    "channel": 8,
    "deltaTime": 45,
    "duration": 358,
    "noteNumber": 57,
    "realTime": 5742,
    "sigIdx": 1,
    "signature": "0003.04.ned",
    "sortKey": 224,
    "track": 9,
    "type": "noteOn",
    "velocity": 65
  },
  {
    "channel": 8,
    "deltaTime": 5,
    "duration": 955,
    "noteNumber": 50,
    "realTime": 5755,
    "sigIdx": 1,
    "signature": "0003.04.ned",
    "sortKey": 226,
    "track": 9,
    "type": "noteOn",
    "velocity": 102
  },
  {
    "channel": 9,
    "deltaTime": 215,
    "duration": 25,
    "noteNumber": 35,
    "realTime": 5755,
    "sigIdx": 1,
    "signature": "0003.04.ned",
    "sortKey": 227,
    "track": 10,
    "type": "noteOn",
    "velocity": 107
  },
  {
    "channel": 9,
    "deltaTime": 0,
    "duration": 25,
    "noteNumber": 42,
    "realTime": 5755,
    "sigIdx": 1,
    "signature": "0003.04.ned",
    "sortKey": 228,
    "track": 10,
    "type": "noteOn",
    "velocity": 74
  },
  {
    "channel": 1,
    "deltaTime": 155,
    "duration": 560,
    "noteNumber": 38,
    "realTime": 5760,
    "sigIdx": 1,
    "signature": "0004.01.ned",
    "sortKey": 230,
    "track": 2,
    "type": "noteOn",
    "velocity": 111
  },
  {
    "channel": 8,
    "deltaTime": 227,
    "duration": 478,
    "noteNumber": 69,
    "realTime": 5982,
    "sigIdx": 1,
    "signature": "0004.01.ned",
    "sortKey": 233,
    "track": 9,
    "type": "noteOn",
    "velocity": 96
  },
  {
    "channel": 9,
    "deltaTime": 215,
    "duration": 25,
    "noteNumber": 42,
    "realTime": 5995,
    "sigIdx": 1,
    "signature": "0004.01.ned",
    "sortKey": 234,
    "track": 10,
    "type": "noteOn",
    "velocity": 47
  },
  {
    "channel": 8,
    "deltaTime": 83,
    "duration": 405,
    "noteNumber": 65,
    "realTime": 6065,
    "sigIdx": 1,
    "signature": "0004.01.ned",
    "sortKey": 236,
    "track": 9,
    "type": "noteOn",
    "velocity": 96
  },
  {
    "channel": 8,
    "deltaTime": 57,
    "duration": 325,
    "noteNumber": 62,
    "realTime": 6157,
    "sigIdx": 1,
    "signature": "0004.01.ned",
    "sortKey": 238,
    "track": 9,
    "type": "noteOn",
    "velocity": 96
  },
  {
    "channel": 9,
    "deltaTime": 215,
    "duration": 25,
    "noteNumber": 42,
    "realTime": 6235,
    "sigIdx": 1,
    "signature": "0004.01.ned",
    "sortKey": 239,
    "track": 10,
    "type": "noteOn",
    "velocity": 70
  },
  {
    "channel": 9,
    "deltaTime": 0,
    "duration": 25,
    "noteNumber": 40,
    "realTime": 6235,
    "sigIdx": 1,
    "signature": "0004.01.ned",
    "sortKey": 240,
    "track": 10,
    "type": "noteOn",
    "velocity": 127
  },
  {
    "channel": 8,
    "deltaTime": 2,
    "duration": 238,
    "noteNumber": 69,
    "realTime": 6462,
    "sigIdx": 1,
    "signature": "0004.02.ned",
    "sortKey": 246,
    "track": 9,
    "type": "noteOn",
    "velocity": 102
  },
  {
    "channel": 8,
    "deltaTime": 5,
    "duration": 235,
    "noteNumber": 65,
    "realTime": 6475,
    "sigIdx": 1,
    "signature": "0004.02.ned",
    "sortKey": 248,
    "track": 9,
    "type": "noteOn",
    "velocity": 102
  },
  {
    "channel": 9,
    "deltaTime": 215,
    "duration": 25,
    "noteNumber": 42,
    "realTime": 6475,
    "sigIdx": 1,
    "signature": "0004.02.ned",
    "sortKey": 249,
    "track": 10,
    "type": "noteOn",
    "velocity": 40
  },
  {
    "channel": 1,
    "deltaTime": 160,
    "duration": 110,
    "noteNumber": 38,
    "realTime": 6480,
    "sigIdx": 1,
    "signature": "0004.02.ned",
    "sortKey": 250,
    "track": 2,
    "type": "noteOn",
    "velocity": 96
  },
  {
    "channel": 8,
    "deltaTime": 3,
    "duration": 235,
    "noteNumber": 62,
    "realTime": 6485,
    "sigIdx": 1,
    "signature": "0004.02.ned",
    "sortKey": 252,
    "track": 9,
    "type": "noteOn",
    "velocity": 102
  },
  {
    "channel": 8,
    "deltaTime": 2,
    "duration": 238,
    "noteNumber": 57,
    "realTime": 6702,
    "sigIdx": 1,
    "signature": "0004.02.ned",
    "sortKey": 256,
    "track": 9,
    "type": "noteOn",
    "velocity": 65
  },
  {
    "channel": 8,
    "deltaTime": 5,
    "duration": 955,
    "noteNumber": 50,
    "realTime": 6715,
    "sigIdx": 1,
    "signature": "0004.02.ned",
    "sortKey": 259,
    "track": 9,
    "type": "noteOn",
    "velocity": 102
  },
  {
    "channel": 9,
    "deltaTime": 215,
    "duration": 25,
    "noteNumber": 35,
    "realTime": 6715,
    "sigIdx": 1,
    "signature": "0004.02.ned",
    "sortKey": 260,
    "track": 10,
    "type": "noteOn",
    "velocity": 97
  },
  {
    "channel": 9,
    "deltaTime": 0,
    "duration": 25,
    "noteNumber": 42,
    "realTime": 6715,
    "sigIdx": 1,
    "signature": "0004.02.ned",
    "sortKey": 261,
    "track": 10,
    "type": "noteOn",
    "velocity": 74
  },
  {
    "channel": 5,
    "deltaTime": 6147,
    "duration": 193,
    "noteNumber": 55,
    "realTime": 6717,
    "sigIdx": 1,
    "signature": "0004.02.ned",
    "sortKey": 262,
    "track": 6,
    "type": "noteOn",
    "velocity": 68
  },
  {
    "channel": 5,
    "deltaTime": 0,
    "duration": 193,
    "noteNumber": 60,
    "realTime": 6717,
    "sigIdx": 1,
    "signature": "0004.02.ned",
    "sortKey": 263,
    "track": 6,
    "type": "noteOn",
    "velocity": 94
  },
  {
    "channel": 1,
    "deltaTime": 130,
    "duration": 232,
    "noteNumber": 36,
    "realTime": 6720,
    "sigIdx": 1,
    "signature": "0004.03.ned",
    "sortKey": 265,
    "track": 2,
    "type": "noteOn",
    "velocity": 111
  },
  {
    "channel": 2,
    "deltaTime": 5700,
    "duration": 192,
    "noteNumber": 55,
    "realTime": 6720,
    "sigIdx": 1,
    "signature": "0004.03.ned",
    "sortKey": 266,
    "track": 3,
    "type": "noteOn",
    "velocity": 54
  },
  {
    "channel": 2,
    "deltaTime": 0,
    "duration": 192,
    "noteNumber": 60,
    "realTime": 6720,
    "sigIdx": 1,
    "signature": "0004.03.ned",
    "sortKey": 267,
    "track": 3,
    "type": "noteOn",
    "velocity": 106
  },
  {
    "channel": 8,
    "deltaTime": 2,
    "duration": 478,
    "noteNumber": 69,
    "realTime": 6942,
    "sigIdx": 1,
    "signature": "0004.03.ned",
    "sortKey": 276,
    "track": 9,
    "type": "noteOn",
    "velocity": 102
  },
  {
    "channel": 8,
    "deltaTime": 13,
    "duration": 475,
    "noteNumber": 65,
    "realTime": 6955,
    "sigIdx": 1,
    "signature": "0004.03.ned",
    "sortKey": 278,
    "track": 9,
    "type": "noteOn",
    "velocity": 102
  },
  {
    "channel": 9,
    "deltaTime": 215,
    "duration": 25,
    "noteNumber": 46,
    "realTime": 6955,
    "sigIdx": 1,
    "signature": "0004.03.ned",
    "sortKey": 279,
    "track": 10,
    "type": "noteOn",
    "velocity": 45
  },
  {
    "channel": 1,
    "deltaTime": 5,
    "duration": 238,
    "noteNumber": 33,
    "realTime": 6957,
    "sigIdx": 1,
    "signature": "0004.03.ned",
    "sortKey": 280,
    "track": 2,
    "type": "noteOn",
    "velocity": 96
  },
  {
    "channel": 5,
    "deltaTime": 47,
    "duration": 5,
    "noteNumber": 60,
    "realTime": 6957,
    "sigIdx": 1,
    "signature": "0004.03.ned",
    "sortKey": 281,
    "track": 6,
    "type": "noteOn",
    "velocity": 68
  },
  {
    "channel": 2,
    "deltaTime": 48,
    "duration": 5,
    "noteNumber": 60,
    "realTime": 6960,
    "sigIdx": 1,
    "signature": "0004.03.ned",
    "sortKey": 282,
    "track": 3,
    "type": "noteOn",
    "velocity": 54
  },
  {
    "channel": 8,
    "deltaTime": 10,
    "duration": 475,
    "noteNumber": 62,
    "realTime": 6965,
    "sigIdx": 1,
    "signature": "0004.03.ned",
    "sortKey": 285,
    "track": 9,
    "type": "noteOn",
    "velocity": 102
  },
  {
    "channel": 9,
    "deltaTime": 215,
    "duration": 25,
    "noteNumber": 42,
    "realTime": 7195,
    "sigIdx": 1,
    "signature": "0004.03.ned",
    "sortKey": 288,
    "track": 10,
    "type": "noteOn",
    "velocity": 74
  },
  {
    "channel": 9,
    "deltaTime": 0,
    "duration": 25,
    "noteNumber": 40,
    "realTime": 7195,
    "sigIdx": 1,
    "signature": "0004.03.ned",
    "sortKey": 289,
    "track": 10,
    "type": "noteOn",
    "velocity": 127
  },
  {
    "channel": 1,
    "deltaTime": 5,
    "duration": 297,
    "noteNumber": 36,
    "realTime": 7200,
    "sigIdx": 1,
    "signature": "0004.04.ned",
    "sortKey": 291,
    "track": 2,
    "type": "noteOn",
    "velocity": 105
  },
  {
    "channel": 4,
    "deltaTime": 6080,
    "duration": 5,
    "noteNumber": 60,
    "realTime": 7200,
    "sigIdx": 1,
    "signature": "0004.04.ned",
    "sortKey": 292,
    "track": 5,
    "type": "noteOn",
    "velocity": 63
  },
  {
    "channel": 5,
    "deltaTime": 238,
    "duration": 215,
    "noteNumber": 55,
    "realTime": 7200,
    "sigIdx": 1,
    "signature": "0004.04.ned",
    "sortKey": 293,
    "track": 6,
    "type": "noteOn",
    "velocity": 63
  },
  {
    "channel": 5,
    "deltaTime": 0,
    "duration": 215,
    "noteNumber": 60,
    "realTime": 7200,
    "sigIdx": 1,
    "signature": "0004.04.ned",
    "sortKey": 294,
    "track": 6,
    "type": "noteOn",
    "velocity": 89
  },
  {
    "channel": 2,
    "deltaTime": 237,
    "duration": 215,
    "noteNumber": 55,
    "realTime": 7202,
    "sigIdx": 1,
    "signature": "0004.04.ned",
    "sortKey": 295,
    "track": 3,
    "type": "noteOn",
    "velocity": 45
  },
  {
    "channel": 2,
    "deltaTime": 0,
    "duration": 215,
    "noteNumber": 60,
    "realTime": 7202,
    "sigIdx": 1,
    "signature": "0004.04.ned",
    "sortKey": 296,
    "track": 3,
    "type": "noteOn",
    "velocity": 97
  },
  {
    "channel": 8,
    "deltaTime": 2,
    "duration": 173,
    "noteNumber": 69,
    "realTime": 7422,
    "sigIdx": 1,
    "signature": "0004.04.ned",
    "sortKey": 305,
    "track": 9,
    "type": "noteOn",
    "velocity": 105
  },
  {
    "channel": 8,
    "deltaTime": 5,
    "duration": 172,
    "noteNumber": 65,
    "realTime": 7435,
    "sigIdx": 1,
    "signature": "0004.04.ned",
    "sortKey": 307,
    "track": 9,
    "type": "noteOn",
    "velocity": 105
  },
  {
    "channel": 9,
    "deltaTime": 215,
    "duration": 25,
    "noteNumber": 35,
    "realTime": 7435,
    "sigIdx": 1,
    "signature": "0004.04.ned",
    "sortKey": 308,
    "track": 10,
    "type": "noteOn",
    "velocity": 76
  },
  {
    "channel": 9,
    "deltaTime": 0,
    "duration": 25,
    "noteNumber": 46,
    "realTime": 7435,
    "sigIdx": 1,
    "signature": "0004.04.ned",
    "sortKey": 309,
    "track": 10,
    "type": "noteOn",
    "velocity": 48
  },
  {
    "channel": 5,
    "deltaTime": 22,
    "duration": 5,
    "noteNumber": 60,
    "realTime": 7437,
    "sigIdx": 1,
    "signature": "0004.04.ned",
    "sortKey": 310,
    "track": 6,
    "type": "noteOn",
    "velocity": 68
  },
  {
    "channel": 2,
    "deltaTime": 23,
    "duration": 5,
    "noteNumber": 60,
    "realTime": 7440,
    "sigIdx": 1,
    "signature": "0004.04.ned",
    "sortKey": 311,
    "track": 3,
    "type": "noteOn",
    "velocity": 54
  },
  {
    "channel": 8,
    "deltaTime": 5,
    "duration": 172,
    "noteNumber": 62,
    "realTime": 7445,
    "sigIdx": 1,
    "signature": "0004.04.ned",
    "sortKey": 315,
    "track": 9,
    "type": "noteOn",
    "velocity": 105
  },
  {
    "channel": 8,
    "deltaTime": 45,
    "duration": 358,
    "noteNumber": 57,
    "realTime": 7662,
    "sigIdx": 1,
    "signature": "0004.04.ned",
    "sortKey": 322,
    "track": 9,
    "type": "noteOn",
    "velocity": 65
  },
  {
    "channel": 8,
    "deltaTime": 5,
    "duration": 955,
    "noteNumber": 50,
    "realTime": 7675,
    "sigIdx": 1,
    "signature": "0004.04.ned",
    "sortKey": 324,
    "track": 9,
    "type": "noteOn",
    "velocity": 102
  },
  {
    "channel": 9,
    "deltaTime": 215,
    "duration": 25,
    "noteNumber": 35,
    "realTime": 7675,
    "sigIdx": 1,
    "signature": "0004.04.ned",
    "sortKey": 325,
    "track": 10,
    "type": "noteOn",
    "velocity": 107
  },
  {
    "channel": 9,
    "deltaTime": 0,
    "duration": 25,
    "noteNumber": 42,
    "realTime": 7675,
    "sigIdx": 1,
    "signature": "0004.04.ned",
    "sortKey": 326,
    "track": 10,
    "type": "noteOn",
    "velocity": 74
  },
  {
    "channel": 9,
    "deltaTime": 0,
    "duration": 25,
    "noteNumber": 51,
    "realTime": 7675,
    "sigIdx": 1,
    "signature": "0004.04.ned",
    "sortKey": 327,
    "track": 10,
    "type": "noteOn",
    "velocity": 53
  },
  {
    "channel": 9,
    "deltaTime": 0,
    "duration": 25,
    "noteNumber": 53,
    "realTime": 7675,
    "sigIdx": 1,
    "signature": "0004.04.ned",
    "sortKey": 328,
    "track": 10,
    "type": "noteOn",
    "velocity": 71
  },
  {
    "channel": 4,
    "deltaTime": 475,
    "duration": 5,
    "noteNumber": 60,
    "realTime": 7680,
    "sigIdx": 1,
    "signature": "0005.01.ned",
    "sortKey": 330,
    "track": 5,
    "type": "noteOn",
    "velocity": 63
  },
  {
    "channel": 5,
    "deltaTime": 240,
    "duration": 1433,
    "noteNumber": 55,
    "realTime": 7682,
    "sigIdx": 1,
    "signature": "0005.01.ned",
    "sortKey": 331,
    "track": 6,
    "type": "noteOn",
    "velocity": 78
  },
  {
    "channel": 5,
    "deltaTime": 0,
    "duration": 1433,
    "noteNumber": 60,
    "realTime": 7682,
    "sigIdx": 1,
    "signature": "0005.01.ned",
    "sortKey": 332,
    "track": 6,
    "type": "noteOn",
    "velocity": 104
  },
  {
    "channel": 1,
    "deltaTime": 188,
    "duration": 540,
    "noteNumber": 38,
    "realTime": 7685,
    "sigIdx": 1,
    "signature": "0005.01.ned",
    "sortKey": 333,
    "track": 2,
    "type": "noteOn",
    "velocity": 109
  },
  {
    "channel": 2,
    "deltaTime": 240,
    "duration": 1432,
    "noteNumber": 55,
    "realTime": 7685,
    "sigIdx": 1,
    "signature": "0005.01.ned",
    "sortKey": 334,
    "track": 3,
    "type": "noteOn",
    "velocity": 74
  },
  {
    "channel": 2,
    "deltaTime": 0,
    "duration": 1432,
    "noteNumber": 60,
    "realTime": 7685,
    "sigIdx": 1,
    "signature": "0005.01.ned",
    "sortKey": 335,
    "track": 3,
    "type": "noteOn",
    "velocity": 126
  },
  {
    "channel": 8,
    "deltaTime": 227,
    "duration": 478,
    "noteNumber": 69,
    "realTime": 7902,
    "sigIdx": 1,
    "signature": "0005.01.ned",
    "sortKey": 341,
    "track": 9,
    "type": "noteOn",
    "velocity": 96
  },
  {
    "channel": 9,
    "deltaTime": 215,
    "duration": 25,
    "noteNumber": 42,
    "realTime": 7915,
    "sigIdx": 1,
    "signature": "0005.01.ned",
    "sortKey": 342,
    "track": 10,
    "type": "noteOn",
    "velocity": 45
  },
  {
    "channel": 4,
    "deltaTime": 240,
    "duration": 1432,
    "noteNumber": 55,
    "realTime": 7925,
    "sigIdx": 1,
    "signature": "0005.01.ned",
    "sortKey": 347,
    "track": 5,
    "type": "noteOn",
    "velocity": 65
  },
  {
    "channel": 4,
    "deltaTime": 0,
    "duration": 1432,
    "noteNumber": 60,
    "realTime": 7925,
    "sigIdx": 1,
    "signature": "0005.01.ned",
    "sortKey": 348,
    "track": 5,
    "type": "noteOn",
    "velocity": 95
  },
  {
    "channel": 8,
    "deltaTime": 83,
    "duration": 405,
    "noteNumber": 65,
    "realTime": 7985,
    "sigIdx": 1,
    "signature": "0005.01.ned",
    "sortKey": 350,
    "track": 9,
    "type": "noteOn",
    "velocity": 96
  },
  {
    "channel": 8,
    "deltaTime": 57,
    "duration": 325,
    "noteNumber": 62,
    "realTime": 8077,
    "sigIdx": 1,
    "signature": "0005.01.ned",
    "sortKey": 354,
    "track": 9,
    "type": "noteOn",
    "velocity": 96
  },
  {
    "channel": 9,
    "deltaTime": 215,
    "duration": 25,
    "noteNumber": 42,
    "realTime": 8155,
    "sigIdx": 1,
    "signature": "0005.01.ned",
    "sortKey": 355,
    "track": 10,
    "type": "noteOn",
    "velocity": 55
  },
  {
    "channel": 9,
    "deltaTime": 0,
    "duration": 25,
    "noteNumber": 40,
    "realTime": 8155,
    "sigIdx": 1,
    "signature": "0005.01.ned",
    "sortKey": 356,
    "track": 10,
    "type": "noteOn",
    "velocity": 127
  },
  {
    "channel": 8,
    "deltaTime": 2,
    "duration": 238,
    "noteNumber": 69,
    "realTime": 8382,
    "sigIdx": 1,
    "signature": "0005.02.ned",
    "sortKey": 363,
    "track": 9,
    "type": "noteOn",
    "velocity": 102
  },
  {
    "channel": 8,
    "deltaTime": 5,
    "duration": 235,
    "noteNumber": 65,
    "realTime": 8395,
    "sigIdx": 1,
    "signature": "0005.02.ned",
    "sortKey": 365,
    "track": 9,
    "type": "noteOn",
    "velocity": 102
  },
  {
    "channel": 9,
    "deltaTime": 215,
    "duration": 25,
    "noteNumber": 35,
    "realTime": 8395,
    "sigIdx": 1,
    "signature": "0005.02.ned",
    "sortKey": 366,
    "track": 10,
    "type": "noteOn",
    "velocity": 95
  },
  {
    "channel": 9,
    "deltaTime": 0,
    "duration": 25,
    "noteNumber": 42,
    "realTime": 8395,
    "sigIdx": 1,
    "signature": "0005.02.ned",
    "sortKey": 367,
    "track": 10,
    "type": "noteOn",
    "velocity": 47
  },
  {
    "channel": 1,
    "deltaTime": 177,
    "duration": 85,
    "noteNumber": 38,
    "realTime": 8402,
    "sigIdx": 1,
    "signature": "0005.02.ned",
    "sortKey": 368,
    "track": 2,
    "type": "noteOn",
    "velocity": 102
  },
  {
    "channel": 8,
    "deltaTime": 3,
    "duration": 235,
    "noteNumber": 62,
    "realTime": 8405,
    "sigIdx": 1,
    "signature": "0005.02.ned",
    "sortKey": 370,
    "track": 9,
    "type": "noteOn",
    "velocity": 102
  },
  {
    "channel": 8,
    "deltaTime": 2,
    "duration": 238,
    "noteNumber": 57,
    "realTime": 8622,
    "sigIdx": 1,
    "signature": "0005.02.ned",
    "sortKey": 375,
    "track": 9,
    "type": "noteOn",
    "velocity": 65
  },
  {
    "channel": 8,
    "deltaTime": 5,
    "duration": 955,
    "noteNumber": 50,
    "realTime": 8635,
    "sigIdx": 1,
    "signature": "0005.02.ned",
    "sortKey": 378,
    "track": 9,
    "type": "noteOn",
    "velocity": 102
  },
  {
    "channel": 9,
    "deltaTime": 215,
    "duration": 25,
    "noteNumber": 35,
    "realTime": 8635,
    "sigIdx": 1,
    "signature": "0005.02.ned",
    "sortKey": 379,
    "track": 10,
    "type": "noteOn",
    "velocity": 107
  },
  {
    "channel": 9,
    "deltaTime": 0,
    "duration": 25,
    "noteNumber": 42,
    "realTime": 8635,
    "sigIdx": 1,
    "signature": "0005.02.ned",
    "sortKey": 380,
    "track": 10,
    "type": "noteOn",
    "velocity": 62
  },
  {
    "channel": 1,
    "deltaTime": 158,
    "duration": 550,
    "noteNumber": 38,
    "realTime": 8645,
    "sigIdx": 1,
    "signature": "0005.03.ned",
    "sortKey": 383,
    "track": 2,
    "type": "noteOn",
    "velocity": 109
  },
  {
    "channel": 8,
    "deltaTime": 2,
    "duration": 478,
    "noteNumber": 69,
    "realTime": 8862,
    "sigIdx": 1,
    "signature": "0005.03.ned",
    "sortKey": 387,
    "track": 9,
    "type": "noteOn",
    "velocity": 102
  },
  {
    "channel": 8,
    "deltaTime": 13,
    "duration": 475,
    "noteNumber": 65,
    "realTime": 8875,
    "sigIdx": 1,
    "signature": "0005.03.ned",
    "sortKey": 388,
    "track": 9,
    "type": "noteOn",
    "velocity": 102
  },
  {
    "channel": 9,
    "deltaTime": 215,
    "duration": 25,
    "noteNumber": 42,
    "realTime": 8875,
    "sigIdx": 1,
    "signature": "0005.03.ned",
    "sortKey": 389,
    "track": 10,
    "type": "noteOn",
    "velocity": 45
  },
  {
    "channel": 8,
    "deltaTime": 10,
    "duration": 475,
    "noteNumber": 62,
    "realTime": 8885,
    "sigIdx": 1,
    "signature": "0005.03.ned",
    "sortKey": 390,
    "track": 9,
    "type": "noteOn",
    "velocity": 102
  },
  {
    "channel": 9,
    "deltaTime": 215,
    "duration": 25,
    "noteNumber": 42,
    "realTime": 9115,
    "sigIdx": 1,
    "signature": "0005.03.ned",
    "sortKey": 397,
    "track": 10,
    "type": "noteOn",
    "velocity": 66
  },
  {
    "channel": 9,
    "deltaTime": 0,
    "duration": 25,
    "noteNumber": 40,
    "realTime": 9115,
    "sigIdx": 1,
    "signature": "0005.03.ned",
    "sortKey": 398,
    "track": 10,
    "type": "noteOn",
    "velocity": 127
  },
  {
    "channel": 8,
    "deltaTime": 2,
    "duration": 173,
    "noteNumber": 69,
    "realTime": 9342,
    "sigIdx": 1,
    "signature": "0005.04.ned",
    "sortKey": 407,
    "track": 9,
    "type": "noteOn",
    "velocity": 105
  },
  {
    "channel": 8,
    "deltaTime": 5,
    "duration": 172,
    "noteNumber": 65,
    "realTime": 9355,
    "sigIdx": 1,
    "signature": "0005.04.ned",
    "sortKey": 410,
    "track": 9,
    "type": "noteOn",
    "velocity": 105
  },
  {
    "channel": 9,
    "deltaTime": 215,
    "duration": 25,
    "noteNumber": 42,
    "realTime": 9355,
    "sigIdx": 1,
    "signature": "0005.04.ned",
    "sortKey": 411,
    "track": 10,
    "type": "noteOn",
    "velocity": 47
  },
  {
    "channel": 1,
    "deltaTime": 165,
    "duration": 87,
    "noteNumber": 38,
    "realTime": 9360,
    "sigIdx": 1,
    "signature": "0005.04.ned",
    "sortKey": 414,
    "track": 2,
    "type": "noteOn",
    "velocity": 96
  },
  {
    "channel": 8,
    "deltaTime": 5,
    "duration": 172,
    "noteNumber": 62,
    "realTime": 9365,
    "sigIdx": 1,
    "signature": "0005.04.ned",
    "sortKey": 416,
    "track": 9,
    "type": "noteOn",
    "velocity": 105
  },
  {
    "channel": 8,
    "deltaTime": 45,
    "duration": 358,
    "noteNumber": 57,
    "realTime": 9582,
    "sigIdx": 1,
    "signature": "0005.04.ned",
    "sortKey": 422,
    "track": 9,
    "type": "noteOn",
    "velocity": 65
  },
  {
    "channel": 8,
    "deltaTime": 5,
    "duration": 955,
    "noteNumber": 50,
    "realTime": 9595,
    "sigIdx": 1,
    "signature": "0005.04.ned",
    "sortKey": 424,
    "track": 9,
    "type": "noteOn",
    "velocity": 102
  },
  {
    "channel": 9,
    "deltaTime": 215,
    "duration": 25,
    "noteNumber": 35,
    "realTime": 9595,
    "sigIdx": 1,
    "signature": "0005.04.ned",
    "sortKey": 425,
    "track": 10,
    "type": "noteOn",
    "velocity": 107
  },
  {
    "channel": 9,
    "deltaTime": 0,
    "duration": 25,
    "noteNumber": 42,
    "realTime": 9595,
    "sigIdx": 1,
    "signature": "0005.04.ned",
    "sortKey": 426,
    "track": 10,
    "type": "noteOn",
    "velocity": 74
  },
  {
    "channel": 1,
    "deltaTime": 158,
    "duration": 547,
    "noteNumber": 38,
    "realTime": 9605,
    "sigIdx": 1,
    "signature": "0006.01.ned",
    "sortKey": 428,
    "track": 2,
    "type": "noteOn",
    "velocity": 111
  },
  {
    "channel": 8,
    "deltaTime": 227,
    "duration": 478,
    "noteNumber": 69,
    "realTime": 9822,
    "sigIdx": 1,
    "signature": "0006.01.ned",
    "sortKey": 431,
    "track": 9,
    "type": "noteOn",
    "velocity": 96
  },
  {
    "channel": 9,
    "deltaTime": 215,
    "duration": 25,
    "noteNumber": 42,
    "realTime": 9835,
    "sigIdx": 1,
    "signature": "0006.01.ned",
    "sortKey": 432,
    "track": 10,
    "type": "noteOn",
    "velocity": 47
  },
  {
    "channel": 8,
    "deltaTime": 83,
    "duration": 405,
    "noteNumber": 65,
    "realTime": 9905,
    "sigIdx": 1,
    "signature": "0006.01.ned",
    "sortKey": 434,
    "track": 9,
    "type": "noteOn",
    "velocity": 96
  },
  {
    "channel": 8,
    "deltaTime": 57,
    "duration": 325,
    "noteNumber": 62,
    "realTime": 9997,
    "sigIdx": 1,
    "signature": "0006.01.ned",
    "sortKey": 436,
    "track": 9,
    "type": "noteOn",
    "velocity": 96
  },
  {
    "channel": 9,
    "deltaTime": 215,
    "duration": 25,
    "noteNumber": 42,
    "realTime": 10075,
    "sigIdx": 1,
    "signature": "0006.01.ned",
    "sortKey": 437,
    "track": 10,
    "type": "noteOn",
    "velocity": 66
  },
  {
    "channel": 9,
    "deltaTime": 0,
    "duration": 25,
    "noteNumber": 40,
    "realTime": 10075,
    "sigIdx": 1,
    "signature": "0006.01.ned",
    "sortKey": 438,
    "track": 10,
    "type": "noteOn",
    "velocity": 127
  },
  {
    "channel": 8,
    "deltaTime": 2,
    "duration": 238,
    "noteNumber": 69,
    "realTime": 10302,
    "sigIdx": 1,
    "signature": "0006.02.ned",
    "sortKey": 444,
    "track": 9,
    "type": "noteOn",
    "velocity": 102
  },
  {
    "channel": 8,
    "deltaTime": 5,
    "duration": 235,
    "noteNumber": 65,
    "realTime": 10315,
    "sigIdx": 1,
    "signature": "0006.02.ned",
    "sortKey": 446,
    "track": 9,
    "type": "noteOn",
    "velocity": 102
  },
  {
    "channel": 9,
    "deltaTime": 215,
    "duration": 25,
    "noteNumber": 35,
    "realTime": 10315,
    "sigIdx": 1,
    "signature": "0006.02.ned",
    "sortKey": 447,
    "track": 10,
    "type": "noteOn",
    "velocity": 102
  },
  {
    "channel": 9,
    "deltaTime": 0,
    "duration": 25,
    "noteNumber": 42,
    "realTime": 10315,
    "sigIdx": 1,
    "signature": "0006.02.ned",
    "sortKey": 448,
    "track": 10,
    "type": "noteOn",
    "velocity": 54
  },
  {
    "channel": 1,
    "deltaTime": 170,
    "duration": 63,
    "noteNumber": 38,
    "realTime": 10322,
    "sigIdx": 1,
    "signature": "0006.02.ned",
    "sortKey": 449,
    "track": 2,
    "type": "noteOn",
    "velocity": 96
  },
  {
    "channel": 8,
    "deltaTime": 3,
    "duration": 235,
    "noteNumber": 62,
    "realTime": 10325,
    "sigIdx": 1,
    "signature": "0006.02.ned",
    "sortKey": 451,
    "track": 9,
    "type": "noteOn",
    "velocity": 102
  },
  {
    "channel": 8,
    "deltaTime": 2,
    "duration": 238,
    "noteNumber": 57,
    "realTime": 10542,
    "sigIdx": 1,
    "signature": "0006.02.ned",
    "sortKey": 456,
    "track": 9,
    "type": "noteOn",
    "velocity": 65
  },
  {
    "channel": 8,
    "deltaTime": 5,
    "duration": 955,
    "noteNumber": 50,
    "realTime": 10555,
    "sigIdx": 1,
    "signature": "0006.02.ned",
    "sortKey": 459,
    "track": 9,
    "type": "noteOn",
    "velocity": 102
  },
  {
    "channel": 9,
    "deltaTime": 215,
    "duration": 25,
    "noteNumber": 35,
    "realTime": 10555,
    "sigIdx": 1,
    "signature": "0006.02.ned",
    "sortKey": 460,
    "track": 10,
    "type": "noteOn",
    "velocity": 107
  },
  {
    "channel": 9,
    "deltaTime": 0,
    "duration": 25,
    "noteNumber": 42,
    "realTime": 10555,
    "sigIdx": 1,
    "signature": "0006.02.ned",
    "sortKey": 461,
    "track": 10,
    "type": "noteOn",
    "velocity": 65
  },
  {
    "channel": 1,
    "deltaTime": 180,
    "duration": 230,
    "noteNumber": 38,
    "realTime": 10565,
    "sigIdx": 1,
    "signature": "0006.03.ned",
    "sortKey": 464,
    "track": 2,
    "type": "noteOn",
    "velocity": 109
  },
  {
    "channel": 8,
    "deltaTime": 2,
    "duration": 478,
    "noteNumber": 69,
    "realTime": 10782,
    "sigIdx": 1,
    "signature": "0006.03.ned",
    "sortKey": 468,
    "track": 9,
    "type": "noteOn",
    "velocity": 102
  },
  {
    "channel": 8,
    "deltaTime": 13,
    "duration": 475,
    "noteNumber": 65,
    "realTime": 10795,
    "sigIdx": 1,
    "signature": "0006.03.ned",
    "sortKey": 470,
    "track": 9,
    "type": "noteOn",
    "velocity": 102
  },
  {
    "channel": 9,
    "deltaTime": 215,
    "duration": 25,
    "noteNumber": 46,
    "realTime": 10795,
    "sigIdx": 1,
    "signature": "0006.03.ned",
    "sortKey": 471,
    "track": 10,
    "type": "noteOn",
    "velocity": 52
  },
  {
    "channel": 1,
    "deltaTime": 2,
    "duration": 205,
    "noteNumber": 33,
    "realTime": 10797,
    "sigIdx": 1,
    "signature": "0006.03.ned",
    "sortKey": 472,
    "track": 2,
    "type": "noteOn",
    "velocity": 90
  },
  {
    "channel": 5,
    "deltaTime": 1685,
    "duration": 482,
    "noteNumber": 55,
    "realTime": 10800,
    "sigIdx": 1,
    "signature": "0006.03.ned",
    "sortKey": 473,
    "track": 6,
    "type": "noteOn",
    "velocity": 94
  },
  {
    "channel": 2,
    "deltaTime": 1685,
    "duration": 483,
    "noteNumber": 55,
    "realTime": 10802,
    "sigIdx": 1,
    "signature": "0006.03.ned",
    "sortKey": 474,
    "track": 3,
    "type": "noteOn",
    "velocity": 106
  },
  {
    "channel": 8,
    "deltaTime": 10,
    "duration": 475,
    "noteNumber": 62,
    "realTime": 10805,
    "sigIdx": 1,
    "signature": "0006.03.ned",
    "sortKey": 475,
    "track": 9,
    "type": "noteOn",
    "velocity": 102
  },
  {
    "channel": 1,
    "deltaTime": 33,
    "duration": 355,
    "noteNumber": 36,
    "realTime": 11035,
    "sigIdx": 1,
    "signature": "0006.03.ned",
    "sortKey": 478,
    "track": 2,
    "type": "noteOn",
    "velocity": 102
  },
  {
    "channel": 9,
    "deltaTime": 215,
    "duration": 25,
    "noteNumber": 42,
    "realTime": 11035,
    "sigIdx": 1,
    "signature": "0006.03.ned",
    "sortKey": 479,
    "track": 10,
    "type": "noteOn",
    "velocity": 65
  },
  {
    "channel": 9,
    "deltaTime": 0,
    "duration": 25,
    "noteNumber": 40,
    "realTime": 11035,
    "sigIdx": 1,
    "signature": "0006.03.ned",
    "sortKey": 480,
    "track": 10,
    "type": "noteOn",
    "velocity": 127
  },
  {
    "channel": 4,
    "deltaTime": 1685,
    "duration": 483,
    "noteNumber": 55,
    "realTime": 11042,
    "sigIdx": 1,
    "signature": "0006.04.ned",
    "sortKey": 484,
    "track": 5,
    "type": "noteOn",
    "velocity": 90
  },
  {
    "channel": 8,
    "deltaTime": 2,
    "duration": 173,
    "noteNumber": 69,
    "realTime": 11262,
    "sigIdx": 1,
    "signature": "0006.04.ned",
    "sortKey": 488,
    "track": 9,
    "type": "noteOn",
    "velocity": 105
  },
  {
    "channel": 8,
    "deltaTime": 5,
    "duration": 172,
    "noteNumber": 65,
    "realTime": 11275,
    "sigIdx": 1,
    "signature": "0006.04.ned",
    "sortKey": 490,
    "track": 9,
    "type": "noteOn",
    "velocity": 105
  },
  {
    "channel": 9,
    "deltaTime": 215,
    "duration": 25,
    "noteNumber": 46,
    "realTime": 11275,
    "sigIdx": 1,
    "signature": "0006.04.ned",
    "sortKey": 491,
    "track": 10,
    "type": "noteOn",
    "velocity": 51
  },
  {
    "channel": 5,
    "deltaTime": 0,
    "duration": 1200,
    "noteNumber": 62,
    "realTime": 11285,
    "sigIdx": 1,
    "signature": "0006.04.ned",
    "sortKey": 497,
    "track": 6,
    "type": "noteOn",
    "velocity": 97
  },
  {
    "channel": 8,
    "deltaTime": 5,
    "duration": 172,
    "noteNumber": 62,
    "realTime": 11285,
    "sigIdx": 1,
    "signature": "0006.04.ned",
    "sortKey": 498,
    "track": 9,
    "type": "noteOn",
    "velocity": 105
  },
  {
    "channel": 2,
    "deltaTime": 0,
    "duration": 1200,
    "noteNumber": 62,
    "realTime": 11287,
    "sigIdx": 1,
    "signature": "0006.04.ned",
    "sortKey": 500,
    "track": 3,
    "type": "noteOn",
    "velocity": 112
  },
  {
    "channel": 8,
    "deltaTime": 45,
    "duration": 358,
    "noteNumber": 57,
    "realTime": 11502,
    "sigIdx": 1,
    "signature": "0006.04.ned",
    "sortKey": 506,
    "track": 9,
    "type": "noteOn",
    "velocity": 65
  },
  {
    "channel": 8,
    "deltaTime": 5,
    "duration": 955,
    "noteNumber": 50,
    "realTime": 11515,
    "sigIdx": 1,
    "signature": "0006.04.ned",
    "sortKey": 508,
    "track": 9,
    "type": "noteOn",
    "velocity": 102
  },
  {
    "channel": 9,
    "deltaTime": 215,
    "duration": 25,
    "noteNumber": 35,
    "realTime": 11515,
    "sigIdx": 1,
    "signature": "0006.04.ned",
    "sortKey": 509,
    "track": 10,
    "type": "noteOn",
    "velocity": 103
  },
  {
    "channel": 9,
    "deltaTime": 0,
    "duration": 25,
    "noteNumber": 42,
    "realTime": 11515,
    "sigIdx": 1,
    "signature": "0006.04.ned",
    "sortKey": 510,
    "track": 10,
    "type": "noteOn",
    "velocity": 66
  },
  {
    "channel": 9,
    "deltaTime": 0,
    "duration": 25,
    "noteNumber": 51,
    "realTime": 11515,
    "sigIdx": 1,
    "signature": "0006.04.ned",
    "sortKey": 511,
    "track": 10,
    "type": "noteOn",
    "velocity": 44
  },
  {
    "channel": 9,
    "deltaTime": 0,
    "duration": 25,
    "noteNumber": 53,
    "realTime": 11515,
    "sigIdx": 1,
    "signature": "0006.04.ned",
    "sortKey": 512,
    "track": 10,
    "type": "noteOn",
    "velocity": 60
  }
]